<svg width="279" height="76" viewBox="0 0 279 76" fill="none" xmlns="http://www.w3.org/2000/svg">
<g clip-path="url(#clip0_886_22788)">
<path d="M24.6391 2.6792C30.8683 -0.893066 38.5041 -0.893066 44.7335 2.6792L59.1035 10.9199C65.4519 14.5605 69.3724 21.3556 69.3724 28.7172V41.916C69.3724 48.8761 65.8649 55.3594 60.0599 59.1291L45.6899 68.4606C38.9894 72.8116 30.3833 72.8116 23.6828 68.4606L9.31284 59.1291C3.50776 55.3594 0 48.8761 0 41.916V28.7172C0 21.3556 3.92083 14.5605 10.2692 10.9199L24.6391 2.6792Z" fill="url(#paint0_linear_886_22788)"/>
<path d="M96.6481 18.8198C94.1681 18.8198 91.78 19.3289 90.4023 20.3473L88.5653 23.0782V19.4678H80.2987V53.2575H88.5653V40.9914L90.1726 43.6298C91.4126 44.3704 93.8007 44.8332 95.8214 44.8332C102.113 44.8332 107.441 40.0656 107.441 31.2711C107.441 23.9577 103.307 18.8198 96.6481 18.8198H96.6481ZM93.5711 39.1862C91.0911 39.1862 88.5653 37.5198 88.5653 32.5671V31.5025C88.5653 26.3183 90.7697 24.4668 93.8007 24.4668C96.694 24.4668 98.9903 27.0589 98.9903 31.6876C98.9903 36.733 96.7859 39.1862 93.5711 39.1862ZM135.452 19.4678H127.186V33.4466C127.186 36.733 125.624 39.1862 123.006 39.1862C120.389 39.1862 119.287 37.7976 119.011 35.4369C118.873 34.1872 118.827 32.8448 118.827 32.0579V19.4678H110.561V33.9094C110.561 35.8998 110.607 37.3347 110.79 38.5845C111.341 41.9634 114.418 44.8332 119.47 44.8332C121.721 44.8332 123.466 44.3241 124.981 43.3983L127.186 40.0194V44.1852H135.452V19.4678H135.452ZM165.058 25.5314C164.415 21.2267 161.43 18.8198 156.378 18.8198C154.128 18.8198 152.383 19.3289 150.867 20.2547L148.663 23.3097V19.4678H140.396V44.1852H148.663V32.5208C148.663 26.9201 150.454 24.4668 152.98 24.4668C155.46 24.4668 156.745 25.8555 156.929 28.2161C157.021 29.4659 157.021 30.8082 157.021 31.5951V44.1852H165.288V30.2065C165.288 28.2161 165.242 26.7812 165.058 25.5314V25.5314ZM181.479 18.8198C174.269 18.8198 168.574 23.5874 168.574 32.1042C168.574 40.2508 173.901 44.8332 180.928 44.8332C187.587 44.8332 192.501 41.5005 193.419 35.1129H185.291C184.831 37.7976 183.27 39.1862 181.387 39.1862C178.586 39.1862 177.024 36.8718 177.024 31.5951C177.024 26.8275 178.54 24.4668 181.295 24.4668C183.362 24.4668 184.969 25.6703 185.337 28.9104H193.328C193.098 23.3559 188.689 18.8198 181.479 18.8198ZM221.568 25.5314C220.925 21.2267 217.94 18.8198 212.888 18.8198C210.638 18.8198 208.892 19.3289 207.377 20.2547L205.172 23.3097V9.93262H196.906V44.1852H205.172V32.5208C205.172 26.92 206.964 24.4668 209.489 24.4668C211.969 24.4668 213.255 25.8554 213.439 28.2161C213.531 29.4658 213.531 30.8082 213.531 31.5951V44.1852H221.797V30.2064C221.797 28.2161 221.751 26.7812 221.568 25.5314L221.568 25.5314Z" fill="#1F84C0"/>
<path d="M235.922 44.1853V12.2471H227.655V44.1853H235.922ZM265.564 25.5315C264.921 21.2268 261.936 18.8199 256.884 18.8199C254.634 18.8199 252.889 19.329 251.373 20.2548L249.169 23.3097V19.4679H240.902V44.1853H249.169V32.5209C249.169 26.9201 250.96 24.4669 253.486 24.4669C255.966 24.4669 257.252 25.8555 257.435 28.2162C257.527 29.4659 257.527 30.8083 257.527 31.5952V44.1853H265.794V30.2065C265.794 28.2162 265.748 26.7813 265.564 25.5315V25.5315ZM274.408 35.5758C271.698 35.5758 269.815 37.4736 269.815 40.2046C269.815 42.9355 271.698 44.8333 274.408 44.8333C277.117 44.8333 279 42.9355 279 40.2046C279 37.4736 277.117 35.5758 274.408 35.5758Z" fill="#19A0CC"/>
<path d="M84.8204 73.2227C84.6164 73.2227 84.458 73.166 84.3459 73.053C84.2437 72.9295 84.1928 72.7598 84.1928 72.5438V67.4831L84.4683 68.3625L80.6259 63.024C80.5341 62.8902 80.4882 62.7567 80.4882 62.6229C80.4985 62.479 80.5544 62.3606 80.6565 62.268C80.7587 62.1754 80.8912 62.1292 81.0546 62.1292C81.1973 62.1292 81.3252 62.165 81.4373 62.2372C81.5494 62.2989 81.6516 62.4019 81.7435 62.5458L85.0041 67.0819H84.6827L87.9434 62.5458C88.0555 62.3915 88.1626 62.2835 88.2648 62.2217C88.367 62.16 88.4895 62.1292 88.6322 62.1292C88.7957 62.1292 88.9231 62.1754 89.0149 62.268C89.1068 62.3502 89.1527 62.4636 89.1527 62.6075C89.163 62.7413 89.1171 62.8852 89.0149 63.0395L85.1878 68.3625L85.4481 67.4831V72.5438C85.4481 72.9963 85.2387 73.2227 84.8204 73.2227ZM92.4226 73.2535C91.6981 73.2535 91.0705 73.0942 90.5397 72.7752C90.0088 72.4562 89.5955 72.0088 89.2997 71.4329C89.0138 70.8466 88.871 70.1573 88.871 69.3654C88.871 68.7687 88.9525 68.2341 89.116 67.7608C89.2794 67.2775 89.519 66.8659 89.8355 66.5264C90.152 66.187 90.5243 65.9297 90.953 65.755C91.3919 65.5698 91.8818 65.4773 92.4226 65.4773C93.1471 65.4773 93.7747 65.6366 94.3055 65.9556C94.8363 66.2746 95.2443 66.727 95.5302 67.3133C95.826 67.8892 95.9741 68.5735 95.9741 69.3654C95.9741 69.9621 95.8926 70.4967 95.7292 70.97C95.5658 71.4433 95.3262 71.8545 95.0097 72.2043C94.6932 72.5438 94.3159 72.8061 93.8769 72.9912C93.4483 73.166 92.9634 73.2535 92.4226 73.2535ZM92.4226 72.2506C92.8818 72.2506 93.2848 72.1376 93.632 71.9112C93.9791 71.6848 94.2443 71.3557 94.428 70.9237C94.622 70.4917 94.7189 69.9721 94.7189 69.3654C94.7189 68.4292 94.5095 67.7145 94.0912 67.2208C93.6829 66.727 93.1268 66.4802 92.4226 66.4802C91.953 66.4802 91.545 66.5932 91.1979 66.8196C90.8611 67.0356 90.5959 67.3596 90.4019 67.7916C90.2182 68.2132 90.1263 68.7378 90.1263 69.3654C90.1263 70.2911 90.3357 71.0059 90.754 71.51C91.1723 72.0038 91.7287 72.2506 92.4226 72.2506ZM100.47 73.2535C99.8675 73.2535 99.3676 73.1455 98.9696 72.9295C98.5815 72.7031 98.2857 72.3691 98.0817 71.9266C97.8877 71.4842 97.7909 70.9341 97.7909 70.2757V66.1407C97.7909 65.9247 97.8418 65.7654 97.9439 65.6624C98.0561 65.5594 98.2092 65.5081 98.4032 65.5081C98.6072 65.5081 98.7603 65.5594 98.8624 65.6624C98.9746 65.7654 99.0308 65.9247 99.0308 66.1407V70.2603C99.0308 70.9187 99.1633 71.4124 99.4289 71.7415C99.7044 72.0605 100.133 72.2198 100.715 72.2198C101.347 72.2198 101.863 72.0038 102.261 71.5717C102.659 71.1397 102.858 70.5739 102.858 69.8745V66.1407C102.858 65.9247 102.909 65.7654 103.011 65.6624C103.123 65.5594 103.281 65.5081 103.486 65.5081C103.679 65.5081 103.827 65.5594 103.93 65.6624C104.042 65.7654 104.098 65.9247 104.098 66.1407V72.5746C104.098 73.0067 103.899 73.2227 103.501 73.2227C103.307 73.2227 103.154 73.166 103.042 73.0529C102.939 72.9399 102.889 72.7802 102.889 72.5746V71.1706L103.088 71.3866C102.883 71.9934 102.546 72.4562 102.077 72.7752C101.618 73.0942 101.082 73.2535 100.47 73.2535ZM107.046 73.2227C106.841 73.2227 106.683 73.166 106.571 73.053C106.469 72.9399 106.418 72.7802 106.418 72.5747V66.1407C106.418 65.9351 106.469 65.7808 106.571 65.6778C106.673 65.5648 106.821 65.5081 107.015 65.5081C107.209 65.5081 107.357 65.5648 107.459 65.6778C107.571 65.7808 107.627 65.9351 107.627 66.1407V67.3905H107.474C107.637 66.7837 107.949 66.3155 108.408 65.9864C108.867 65.6574 109.434 65.4823 110.107 65.4618C110.26 65.4514 110.383 65.4877 110.475 65.5698C110.566 65.642 110.617 65.7704 110.628 65.9556C110.638 66.1303 110.597 66.2692 110.505 66.3722C110.413 66.4751 110.27 66.5369 110.077 66.5573L109.832 66.5882C109.137 66.6499 108.602 66.8763 108.224 67.267C107.857 67.6477 107.673 68.1723 107.673 68.8408V72.5746C107.673 72.7802 107.617 72.9399 107.504 73.0529C107.403 73.166 107.25 73.2227 107.046 73.2227ZM116.463 73.1918C116.259 73.1918 116.106 73.1351 116.004 73.0221C115.902 72.8987 115.851 72.7289 115.851 72.5129V66.2024C115.851 65.9864 115.902 65.8217 116.004 65.7087C116.106 65.5957 116.259 65.539 116.463 65.539C116.657 65.539 116.81 65.5957 116.923 65.7087C117.035 65.8217 117.091 65.9864 117.091 66.2024V72.5129C117.091 72.7289 117.035 72.8987 116.923 73.0221C116.82 73.1351 116.667 73.1918 116.463 73.1918ZM116.463 63.8109C116.208 63.8109 116.009 63.7442 115.866 63.6103C115.724 63.4665 115.652 63.2759 115.652 63.0395C115.652 62.7926 115.724 62.6074 115.866 62.484C116.009 62.3502 116.208 62.2834 116.463 62.2834C116.729 62.2834 116.928 62.3502 117.06 62.484C117.203 62.6074 117.275 62.7926 117.275 63.0395C117.275 63.2759 117.203 63.4665 117.06 63.6103C116.928 63.7442 116.729 63.8109 116.463 63.8109ZM120.021 73.2227C119.817 73.2227 119.664 73.166 119.562 73.053C119.46 72.9399 119.409 72.7802 119.409 72.5747V66.1407C119.409 65.9351 119.46 65.7808 119.562 65.6778C119.664 65.5648 119.812 65.5081 120.006 65.5081C120.2 65.5081 120.348 65.5648 120.45 65.6778C120.562 65.7808 120.618 65.9351 120.618 66.1407V67.4676L120.45 67.2825C120.664 66.6857 121.011 66.2383 121.491 65.9401C121.981 65.6316 122.542 65.4773 123.175 65.4773C123.767 65.4773 124.256 65.5853 124.644 65.8013C125.043 66.0173 125.338 66.3463 125.532 66.7887C125.726 67.2208 125.823 67.7712 125.823 68.4397V72.5747C125.823 72.7802 125.767 72.9399 125.655 73.053C125.553 73.166 125.405 73.2227 125.211 73.2227C125.007 73.2227 124.848 73.166 124.736 73.053C124.634 72.9399 124.583 72.7802 124.583 72.5747V68.5168C124.583 67.8175 124.445 67.3083 124.17 66.9893C123.904 66.6603 123.476 66.4956 122.884 66.4956C122.2 66.4956 121.654 66.7116 121.246 67.1436C120.848 67.5652 120.649 68.1311 120.649 68.8408V72.5746C120.649 73.0067 120.44 73.2227 120.021 73.2227ZM130.62 73.2535C130.161 73.2535 129.697 73.1968 129.227 73.0838C128.768 72.9708 128.339 72.7752 127.941 72.4975C127.839 72.4254 127.768 72.3432 127.727 72.2506C127.686 72.1476 127.671 72.0501 127.681 71.9575C127.702 71.8545 127.742 71.7673 127.803 71.6952C127.875 71.6231 127.956 71.5822 128.048 71.5718C128.151 71.5513 128.263 71.5718 128.385 71.6335C128.783 71.8803 129.166 72.0551 129.533 72.1581C129.911 72.2506 130.283 72.2969 130.651 72.2969C131.232 72.2969 131.671 72.1889 131.967 71.9729C132.263 71.7569 132.411 71.4637 132.411 71.0934C132.411 70.8053 132.314 70.5793 132.12 70.4146C131.927 70.2398 131.621 70.106 131.202 70.0134L129.809 69.7048C129.166 69.571 128.686 69.3395 128.37 69.0105C128.064 68.6815 127.911 68.2545 127.911 67.7299C127.911 67.267 128.028 66.8709 128.263 66.5419C128.508 66.2024 128.85 65.9401 129.288 65.755C129.727 65.5698 130.237 65.4773 130.819 65.4773C131.268 65.4773 131.692 65.539 132.09 65.6624C132.498 65.7754 132.866 65.9606 133.192 66.2179C133.294 66.29 133.36 66.3772 133.391 66.4802C133.432 66.5727 133.437 66.6703 133.406 66.7733C133.386 66.8659 133.34 66.948 133.269 67.0202C133.197 67.0819 133.11 67.1178 133.008 67.1282C132.906 67.1386 132.799 67.1077 132.687 67.0356C132.381 66.83 132.069 66.6807 131.753 66.5882C131.437 66.4852 131.125 66.4339 130.819 66.4339C130.248 66.4339 129.814 66.5469 129.518 66.7733C129.222 66.9997 129.074 67.2979 129.074 67.6682C129.074 67.9563 129.166 68.1928 129.35 68.3779C129.533 68.5631 129.819 68.6969 130.207 68.7791L131.6 69.0722C132.264 69.2161 132.758 69.4475 133.085 69.7666C133.422 70.0751 133.59 70.4967 133.59 71.0317C133.59 71.7106 133.32 72.2506 132.779 72.6518C132.238 73.0529 131.518 73.2535 130.62 73.2535ZM138.113 73.2535C137.511 73.2535 137.011 73.1455 136.613 72.9295C136.225 72.7031 135.929 72.3691 135.725 71.9266C135.531 71.4842 135.434 70.9341 135.434 70.2757V66.1407C135.434 65.9247 135.485 65.7654 135.587 65.6624C135.699 65.5594 135.852 65.5081 136.046 65.5081C136.25 65.5081 136.403 65.5594 136.505 65.6624C136.618 65.7654 136.674 65.9247 136.674 66.1407V70.2603C136.674 70.9187 136.807 71.4124 137.072 71.7415C137.347 72.0605 137.776 72.2198 138.358 72.2198C138.99 72.2198 139.506 72.0038 139.904 71.5717C140.302 71.1397 140.501 70.5739 140.501 69.8745V66.1407C140.501 65.9247 140.552 65.7654 140.654 65.6624C140.766 65.5594 140.925 65.5081 141.129 65.5081C141.323 65.5081 141.47 65.5594 141.573 65.6624C141.685 65.7654 141.741 65.9247 141.741 66.1407V72.5746C141.741 73.0067 141.542 73.2227 141.144 73.2227C140.95 73.2227 140.797 73.166 140.685 73.0529C140.582 72.9399 140.532 72.7802 140.532 72.5746V71.1706L140.731 71.3866C140.527 71.9934 140.19 72.4562 139.72 72.7752C139.261 73.0942 138.725 73.2535 138.113 73.2535ZM144.689 73.2227C144.485 73.2227 144.326 73.166 144.214 73.053C144.112 72.9399 144.061 72.7802 144.061 72.5747V66.1407C144.061 65.9351 144.112 65.7808 144.214 65.6778C144.316 65.5648 144.464 65.5081 144.658 65.5081C144.852 65.5081 145 65.5648 145.102 65.6778C145.214 65.7808 145.27 65.9351 145.27 66.1407V67.3905H145.117C145.281 66.7837 145.592 66.3155 146.051 65.9864C146.51 65.6574 147.077 65.4823 147.75 65.4618C147.903 65.4514 148.026 65.4877 148.118 65.5698C148.209 65.642 148.26 65.7704 148.271 65.9556C148.281 66.1303 148.24 66.2692 148.148 66.3722C148.056 66.4751 147.914 66.5369 147.72 66.5573L147.475 66.5882C146.781 66.6499 146.245 66.8763 145.867 67.267C145.5 67.6477 145.316 68.1723 145.316 68.8408V72.5746C145.316 72.7802 145.26 72.9399 145.148 73.0529C145.046 73.166 144.893 73.2227 144.689 73.2227ZM151.815 73.2535C151.304 73.2535 150.845 73.1559 150.437 72.9604C150.039 72.7548 149.723 72.4771 149.488 72.1272C149.253 71.7773 149.136 71.3866 149.136 70.9546C149.136 70.3991 149.274 69.9621 149.549 69.6431C149.835 69.3241 150.299 69.0981 150.942 68.9642C151.595 68.8304 152.483 68.7637 153.606 68.7637H154.295V69.5814H153.621C152.795 69.5814 152.141 69.6227 151.662 69.7048C151.192 69.777 150.861 69.9054 150.667 70.0906C150.483 70.2757 150.391 70.538 150.391 70.8774C150.391 71.299 150.534 71.6439 150.82 71.9112C151.116 72.1785 151.514 72.3123 152.014 72.3123C152.422 72.3123 152.779 72.2148 153.086 72.0192C153.402 71.8236 153.647 71.5563 153.82 71.2169C154.004 70.8774 154.096 70.4867 154.096 70.0443V68.2853C154.096 67.6477 153.968 67.1899 153.713 66.9121C153.458 66.624 153.04 66.4801 152.458 66.4801C152.101 66.4801 151.743 66.5264 151.386 66.619C151.029 66.7116 150.652 66.8608 150.254 67.0664C150.11 67.1386 149.988 67.164 149.886 67.1436C149.784 67.1127 149.702 67.056 149.641 66.9739C149.58 66.8917 149.544 66.7991 149.534 66.6961C149.524 66.5831 149.544 66.4751 149.595 66.3721C149.657 66.2691 149.748 66.187 149.871 66.1253C150.32 65.8988 150.764 65.7345 151.203 65.6315C151.641 65.5285 152.06 65.4772 152.458 65.4772C153.101 65.4772 153.631 65.5852 154.05 65.8013C154.468 66.0068 154.779 66.3258 154.984 66.7579C155.188 67.1795 155.29 67.7249 155.29 68.3933V72.5746C155.29 72.7802 155.239 72.9399 155.137 73.0529C155.045 73.166 154.907 73.2227 154.724 73.2227C154.53 73.2227 154.381 73.1659 154.28 73.0529C154.177 72.9399 154.127 72.7802 154.127 72.5746V71.3712H154.264C154.182 71.7619 154.024 72.0963 153.79 72.3741C153.565 72.6518 153.285 72.8678 152.948 73.0221C152.611 73.1764 152.233 73.2535 151.815 73.2535ZM158.202 73.2227C157.998 73.2227 157.845 73.166 157.743 73.053C157.641 72.9399 157.59 72.7802 157.59 72.5747V66.1407C157.59 65.9351 157.641 65.7808 157.743 65.6778C157.845 65.5648 157.993 65.5081 158.187 65.5081C158.381 65.5081 158.529 65.5648 158.631 65.6778C158.744 65.7808 158.799 65.9351 158.799 66.1407V67.4676L158.631 67.2825C158.845 66.6857 159.193 66.2383 159.672 65.9401C160.162 65.6316 160.723 65.4773 161.356 65.4773C161.948 65.4773 162.438 65.5853 162.826 65.8013C163.224 66.0173 163.52 66.3463 163.713 66.7887C163.908 67.2208 164.004 67.7712 164.004 68.4397V72.5747C164.004 72.7802 163.948 72.9399 163.836 73.053C163.734 73.166 163.586 73.2227 163.392 73.2227C163.188 73.2227 163.03 73.166 162.917 73.053C162.816 72.9399 162.764 72.7802 162.764 72.5747V68.5168C162.764 67.8175 162.627 67.3083 162.351 66.9893C162.086 66.6603 161.657 66.4956 161.065 66.4956C160.382 66.4956 159.835 66.7116 159.427 67.1436C159.029 67.5652 158.83 68.1311 158.83 68.8408V72.5746C158.83 73.0067 158.621 73.2227 158.202 73.2227ZM169.445 73.2535C168.699 73.2535 168.056 73.0888 167.516 72.7598C166.975 72.4308 166.556 71.9729 166.26 71.3866C165.975 70.7899 165.832 70.101 165.832 69.3191C165.832 68.7224 165.913 68.1878 166.077 67.7145C166.24 67.2412 166.48 66.84 166.796 66.511C167.112 66.1716 167.49 65.9143 167.929 65.7396C168.378 65.5648 168.883 65.4773 169.445 65.4773C169.812 65.4773 170.195 65.534 170.593 65.647C170.991 65.76 171.353 65.9556 171.68 66.2333C171.781 66.3054 171.848 66.3926 171.879 66.4956C171.909 66.5986 171.909 66.7012 171.879 66.8042C171.848 66.8968 171.797 66.9789 171.726 67.051C171.654 67.1128 171.562 67.1486 171.45 67.159C171.348 67.1695 171.241 67.1332 171.128 67.051C170.863 66.8454 170.593 66.7012 170.317 66.619C170.042 66.5369 169.776 66.4956 169.521 66.4956C169.123 66.4956 168.776 66.5623 168.48 66.6962C168.184 66.8196 167.934 66.9997 167.73 67.2362C167.526 67.4726 167.368 67.7658 167.255 68.1156C167.153 68.4655 167.102 68.8717 167.102 69.3345C167.102 70.2294 167.311 70.9392 167.73 71.4638C168.148 71.9779 168.745 72.2352 169.521 72.2352C169.776 72.2352 170.036 72.1939 170.302 72.1118C170.577 72.0296 170.853 71.8854 171.128 71.6798C171.241 71.5976 171.348 71.5613 171.45 71.5718C171.552 71.5822 171.639 71.6231 171.71 71.6952C171.781 71.7569 171.827 71.8391 171.848 71.9421C171.879 72.045 171.879 72.1476 171.848 72.2506C171.817 72.3432 171.751 72.4254 171.649 72.4975C171.322 72.7648 170.965 72.9604 170.577 73.0838C170.189 73.1968 169.812 73.2535 169.445 73.2535ZM176.58 73.2535C175.794 73.2535 175.116 73.0992 174.544 72.7907C173.983 72.4717 173.544 72.0242 173.228 71.4483C172.921 70.8724 172.768 70.1831 172.768 69.3808C172.768 68.5989 172.921 67.9201 173.228 67.3442C173.534 66.7579 173.952 66.3 174.483 65.971C175.024 65.642 175.646 65.4773 176.351 65.4773C176.85 65.4773 177.3 65.5648 177.698 65.7396C178.096 65.9043 178.433 66.1457 178.708 66.4647C178.994 66.7837 179.208 67.1694 179.351 67.6219C179.504 68.0744 179.581 68.5835 179.581 69.1494C179.581 69.3141 179.535 69.4375 179.443 69.5197C179.351 69.5918 179.218 69.6277 179.045 69.6277H173.718V68.8099H178.754L178.509 69.0105C178.509 68.4551 178.427 67.9872 178.264 67.6065C178.101 67.2157 177.861 66.9172 177.545 66.7116C177.238 66.506 176.85 66.403 176.381 66.403C175.861 66.403 175.417 66.5264 175.049 66.7733C174.692 67.0098 174.422 67.3442 174.238 67.7762C174.054 68.1978 173.962 68.6915 173.962 69.2574V69.35C173.962 70.2961 174.187 71.0163 174.636 71.51C175.095 72.0038 175.743 72.2506 176.58 72.2506C176.927 72.2506 177.269 72.2043 177.606 72.1118C177.953 72.0192 178.289 71.8649 178.616 71.6489C178.759 71.5563 178.886 71.515 178.999 71.5255C179.121 71.5255 179.218 71.5613 179.29 71.6335C179.361 71.6952 179.407 71.7773 179.428 71.8803C179.458 71.9729 179.448 72.0759 179.397 72.1889C179.356 72.3019 179.269 72.3999 179.137 72.4821C178.8 72.7289 178.402 72.9191 177.943 73.0529C177.483 73.1868 177.029 73.2535 176.58 73.2535ZM188.475 73.2535C187.73 73.2535 187.088 73.0888 186.546 72.7598C186.006 72.4308 185.587 71.9729 185.291 71.3866C185.006 70.7899 184.862 70.101 184.862 69.3191C184.862 68.7224 184.944 68.1878 185.107 67.7145C185.271 67.2412 185.511 66.84 185.827 66.511C186.143 66.1716 186.521 65.9143 186.96 65.7396C187.409 65.5648 187.914 65.4773 188.475 65.4773C188.843 65.4773 189.225 65.534 189.623 65.647C190.021 65.76 190.384 65.9556 190.71 66.2333C190.812 66.3054 190.879 66.3926 190.909 66.4956C190.94 66.5986 190.94 66.7012 190.909 66.8042C190.879 66.8968 190.828 66.9789 190.756 67.051C190.685 67.1128 190.593 67.1486 190.481 67.159C190.379 67.1695 190.272 67.1332 190.159 67.051C189.894 66.8454 189.623 66.7012 189.348 66.619C189.072 66.5369 188.807 66.4956 188.552 66.4956C188.154 66.4956 187.807 66.5623 187.511 66.6962C187.215 66.8196 186.965 66.9997 186.761 67.2362C186.557 67.4726 186.399 67.7658 186.286 68.1156C186.184 68.4655 186.133 68.8717 186.133 69.3345C186.133 70.2294 186.342 70.9392 186.761 71.4638C187.179 71.9779 187.776 72.2352 188.552 72.2352C188.807 72.2352 189.067 72.1939 189.332 72.1118C189.608 72.0296 189.884 71.8854 190.159 71.6798C190.272 71.5976 190.379 71.5613 190.481 71.5718C190.583 71.5822 190.67 71.6231 190.741 71.6952C190.812 71.7569 190.858 71.8391 190.879 71.9421C190.909 72.045 190.909 72.1476 190.879 72.2506C190.848 72.3432 190.782 72.4254 190.68 72.4975C190.353 72.7648 189.996 72.9604 189.608 73.0838C189.22 73.1968 188.843 73.2535 188.475 73.2535ZM194.674 73.2535C193.939 73.2535 193.377 73.0271 192.99 72.5746C192.602 72.1222 192.408 71.4742 192.408 70.6306V62.7617C192.408 62.5562 192.459 62.4019 192.561 62.2989C192.663 62.1859 192.816 62.1292 193.02 62.1292C193.214 62.1292 193.367 62.1859 193.48 62.2989C193.592 62.4019 193.648 62.5562 193.648 62.7617V70.538C193.648 71.0935 193.755 71.51 193.969 71.7878C194.194 72.0551 194.52 72.1889 194.949 72.1889C195.041 72.1889 195.122 72.1839 195.194 72.1735C195.266 72.1631 195.337 72.1581 195.408 72.1581C195.521 72.1476 195.597 72.1735 195.638 72.2352C195.689 72.2969 195.715 72.4204 195.715 72.6055C195.715 72.7906 195.674 72.9295 195.592 73.0221C195.511 73.1147 195.378 73.1764 195.194 73.2072C195.113 73.2177 195.026 73.2277 194.934 73.2381C194.842 73.2485 194.755 73.2535 194.674 73.2535ZM199.28 73.2535C198.77 73.2535 198.31 73.1559 197.902 72.9604C197.504 72.7548 197.188 72.4771 196.953 72.1272C196.718 71.7773 196.601 71.3866 196.601 70.9546C196.601 70.3991 196.739 69.9621 197.014 69.6431C197.3 69.3241 197.764 69.0981 198.407 68.9642C199.061 68.8304 199.948 68.7637 201.071 68.7637H201.76V69.5814H201.086C200.26 69.5814 199.606 69.6227 199.127 69.7048C198.657 69.777 198.326 69.9054 198.132 70.0906C197.948 70.2757 197.856 70.538 197.856 70.8774C197.856 71.299 197.999 71.6439 198.285 71.9112C198.581 72.1785 198.979 72.3123 199.479 72.3123C199.887 72.3123 200.244 72.2148 200.55 72.0192C200.867 71.8236 201.112 71.5563 201.285 71.2169C201.469 70.8774 201.561 70.4867 201.561 70.0443V68.2853C201.561 67.6477 201.433 67.1899 201.178 66.9121C200.923 66.624 200.505 66.4801 199.923 66.4801C199.566 66.4801 199.208 66.5264 198.851 66.619C198.494 66.7116 198.116 66.8608 197.718 67.0664C197.576 67.1386 197.453 67.164 197.351 67.1436C197.249 67.1127 197.167 67.056 197.106 66.9739C197.045 66.8917 197.009 66.7991 196.999 66.6961C196.989 66.5831 197.009 66.4751 197.06 66.3721C197.121 66.2691 197.213 66.187 197.336 66.1253C197.785 65.8988 198.229 65.7345 198.668 65.6315C199.106 65.5285 199.525 65.4772 199.923 65.4772C200.566 65.4772 201.097 65.5852 201.515 65.8013C201.933 66.0068 202.245 66.3258 202.449 66.7579C202.653 67.1795 202.755 67.7249 202.755 68.3933V72.5746C202.755 72.7802 202.704 72.9399 202.602 73.0529C202.51 73.166 202.372 73.2227 202.188 73.2227C201.994 73.2227 201.847 73.1659 201.745 73.0529C201.642 72.9399 201.591 72.7802 201.591 72.5746V71.3712H201.729C201.648 71.7619 201.489 72.0963 201.255 72.3741C201.03 72.6518 200.749 72.8678 200.413 73.0221C200.076 73.1764 199.698 73.2535 199.28 73.2535ZM205.668 73.1918C205.464 73.1918 205.311 73.1351 205.208 73.0221C205.106 72.8987 205.055 72.7289 205.055 72.5129V66.2024C205.055 65.9864 205.106 65.8217 205.208 65.7087C205.311 65.5957 205.464 65.539 205.668 65.539C205.862 65.539 206.015 65.5957 206.127 65.7087C206.239 65.8217 206.295 65.9864 206.295 66.2024V72.5129C206.295 72.7289 206.239 72.8987 206.127 73.0221C206.025 73.1351 205.872 73.1918 205.668 73.1918ZM205.668 63.8109C205.412 63.8109 205.213 63.7442 205.071 63.6103C204.928 63.4665 204.856 63.2759 204.856 63.0395C204.856 62.7926 204.928 62.6074 205.071 62.484C205.213 62.3502 205.412 62.2834 205.668 62.2834C205.933 62.2834 206.132 62.3502 206.265 62.484C206.407 62.6074 206.479 62.7926 206.479 63.0395C206.479 63.2759 206.407 63.4665 206.265 63.6103C206.132 63.7442 205.933 63.8109 205.668 63.8109ZM209.256 73.2227C209.052 73.2227 208.899 73.166 208.797 73.053C208.695 72.9399 208.644 72.7802 208.644 72.5747V66.1407C208.644 65.9351 208.695 65.7808 208.797 65.6778C208.899 65.5648 209.047 65.5081 209.241 65.5081C209.435 65.5081 209.583 65.5648 209.685 65.6778C209.797 65.7808 209.853 65.9351 209.853 66.1407V67.4985L209.685 67.2825C209.879 66.7066 210.19 66.2641 210.619 65.9556C211.057 65.6366 211.578 65.4773 212.18 65.4773C212.813 65.4773 213.323 65.6316 213.711 65.9401C214.109 66.2383 214.374 66.7066 214.507 67.3442H214.278C214.461 66.7683 214.788 66.3155 215.257 65.9864C215.737 65.647 216.293 65.4773 216.926 65.4773C217.487 65.4773 217.946 65.5853 218.304 65.8013C218.671 66.0173 218.947 66.3463 219.13 66.7887C219.314 67.2208 219.406 67.7712 219.406 68.4397V72.5747C219.406 72.7802 219.35 72.9399 219.237 73.053C219.135 73.166 218.982 73.2227 218.778 73.2227C218.584 73.2227 218.431 73.166 218.319 73.053C218.217 72.9399 218.166 72.7802 218.166 72.5747V68.5014C218.166 67.8121 218.048 67.3083 217.814 66.9893C217.579 66.6603 217.181 66.4956 216.62 66.4956C216.007 66.4956 215.522 66.7116 215.165 67.1436C214.818 67.5652 214.645 68.1415 214.645 68.8717V72.5747C214.645 72.7802 214.589 72.9399 214.477 73.053C214.374 73.166 214.221 73.2227 214.017 73.2227C213.823 73.2227 213.67 73.166 213.558 73.053C213.456 72.9399 213.405 72.7802 213.405 72.5747V68.5014C213.405 67.8121 213.282 67.3083 213.038 66.9893C212.803 66.6603 212.41 66.4956 211.859 66.4956C211.246 66.4956 210.762 66.7116 210.404 67.1436C210.057 67.5652 209.884 68.1415 209.884 68.8717V72.5747C209.884 73.0067 209.675 73.2227 209.256 73.2227ZM226.283 75.9999C226.079 75.9999 225.926 75.9432 225.824 75.8302C225.722 75.7272 225.671 75.5729 225.671 75.3673V66.1407C225.671 65.9351 225.722 65.7808 225.824 65.6778C225.926 65.5648 226.074 65.5081 226.268 65.5081C226.472 65.5081 226.625 65.5648 226.727 65.6778C226.839 65.7808 226.895 65.9351 226.895 66.1407V67.6065L226.727 67.3905C226.891 66.8042 227.212 66.3413 227.692 66.0018C228.181 65.652 228.763 65.4773 229.437 65.4773C230.1 65.4773 230.677 65.6366 231.167 65.9556C231.667 66.2642 232.049 66.7116 232.315 67.2979C232.59 67.8738 232.728 68.5631 232.728 69.3654C232.728 70.1573 232.59 70.8466 232.315 71.4329C232.049 72.0088 231.672 72.4562 231.182 72.7752C230.692 73.0942 230.11 73.2535 229.437 73.2535C228.763 73.2535 228.186 73.0838 227.707 72.7444C227.227 72.3945 226.9 71.9316 226.727 71.3557H226.911V75.3673C226.911 75.5729 226.855 75.7272 226.742 75.8302C226.63 75.9432 226.477 75.9999 226.283 75.9999ZM229.176 72.2506C229.646 72.2506 230.049 72.1376 230.386 71.9112C230.733 71.6848 230.998 71.3557 231.182 70.9237C231.376 70.4917 231.473 69.9721 231.473 69.3654C231.473 68.4292 231.263 67.7145 230.845 67.2208C230.437 66.727 229.881 66.4802 229.176 66.4802C228.717 66.4802 228.314 66.5932 227.967 66.8196C227.62 67.0356 227.35 67.3596 227.156 67.7916C226.972 68.2132 226.88 68.7378 226.88 69.3654C226.88 70.2911 227.09 71.0059 227.508 71.51C227.926 72.0038 228.483 72.2506 229.176 72.2506ZM236.938 73.2535C236.428 73.2535 235.968 73.1559 235.56 72.9604C235.162 72.7548 234.846 72.4771 234.611 72.1272C234.376 71.7773 234.259 71.3866 234.259 70.9546C234.259 70.3991 234.397 69.9621 234.672 69.6431C234.958 69.3241 235.422 69.0981 236.065 68.9642C236.719 68.8304 237.606 68.7637 238.729 68.7637H239.418V69.5814H238.744C237.918 69.5814 237.265 69.6227 236.785 69.7048C236.316 69.777 235.984 69.9054 235.79 70.0906C235.606 70.2757 235.514 70.538 235.514 70.8774C235.514 71.299 235.657 71.6439 235.943 71.9112C236.239 72.1785 236.637 72.3123 237.137 72.3123C237.545 72.3123 237.902 72.2148 238.208 72.0192C238.525 71.8236 238.77 71.5563 238.943 71.2169C239.127 70.8774 239.219 70.4867 239.219 70.0443V68.2853C239.219 67.6477 239.091 67.1899 238.836 66.9121C238.581 66.624 238.162 66.4801 237.581 66.4801C237.224 66.4801 236.867 66.5264 236.509 66.619C236.152 66.7116 235.774 66.8608 235.376 67.0664C235.234 67.1386 235.111 67.164 235.009 67.1436C234.907 67.1127 234.825 67.056 234.764 66.9739C234.703 66.8917 234.667 66.7991 234.657 66.6961C234.647 66.5831 234.667 66.4751 234.718 66.3721C234.779 66.2691 234.871 66.187 234.994 66.1253C235.443 65.8988 235.887 65.7345 236.325 65.6315C236.764 65.5285 237.183 65.4772 237.581 65.4772C238.224 65.4772 238.755 65.5852 239.173 65.8013C239.592 66.0068 239.903 66.3258 240.107 66.7579C240.311 67.1795 240.413 67.7249 240.413 68.3933V72.5746C240.413 72.7802 240.362 72.9399 240.26 73.0529C240.168 73.166 240.03 73.2227 239.846 73.2227C239.653 73.2227 239.505 73.1659 239.402 73.0529C239.301 72.9399 239.249 72.7802 239.249 72.5746V71.3712H239.387C239.306 71.7619 239.148 72.0963 238.913 72.3741C238.688 72.6518 238.407 72.8678 238.071 73.0221C237.734 73.1764 237.356 73.2535 236.938 73.2535ZM243.341 73.2227C243.137 73.2227 242.979 73.166 242.866 73.053C242.765 72.9399 242.713 72.7802 242.713 72.5747V66.1407C242.713 65.9351 242.765 65.7808 242.866 65.6778C242.969 65.5648 243.117 65.5081 243.31 65.5081C243.504 65.5081 243.652 65.5648 243.754 65.6778C243.867 65.7808 243.923 65.9351 243.923 66.1407V67.3905H243.77C243.933 66.7837 244.244 66.3155 244.703 65.9864C245.163 65.6574 245.729 65.4823 246.403 65.4618C246.556 65.4514 246.678 65.4877 246.77 65.5698C246.862 65.642 246.913 65.7704 246.923 65.9556C246.933 66.1303 246.892 66.2692 246.801 66.3722C246.709 66.4751 246.566 66.5369 246.372 66.5573L246.127 66.5882C245.433 66.6499 244.897 66.8763 244.52 67.267C244.152 67.6477 243.969 68.1723 243.969 68.8408V72.5746C243.969 72.7802 243.913 72.9399 243.8 73.0529C243.698 73.166 243.545 73.2227 243.341 73.2227ZM251.589 73.2535C251.007 73.2535 250.517 73.1505 250.119 72.9449C249.731 72.7289 249.441 72.4204 249.247 72.0192C249.052 71.6076 248.956 71.1089 248.956 70.5226V66.5882H247.93C247.757 66.5882 247.624 66.5469 247.532 66.4647C247.44 66.3722 247.394 66.2487 247.394 66.0944C247.394 65.9401 247.44 65.8217 247.532 65.7396C247.624 65.6574 247.757 65.6161 247.93 65.6161H248.956V63.8418C248.956 63.6362 249.012 63.4819 249.124 63.3789C249.236 63.2659 249.389 63.2092 249.583 63.2092C249.777 63.2092 249.925 63.2659 250.027 63.3789C250.139 63.4819 250.196 63.6362 250.196 63.8418V65.6161H252.124C252.298 65.6161 252.431 65.6574 252.523 65.7396C252.614 65.8217 252.66 65.9401 252.66 66.0944C252.66 66.2487 252.614 66.3722 252.523 66.4647C252.431 66.5469 252.298 66.5882 252.124 66.5882H250.196V70.3991C250.196 70.9854 250.318 71.4329 250.563 71.7415C250.808 72.0396 251.206 72.1889 251.757 72.1889C251.951 72.1889 252.114 72.1685 252.247 72.1272C252.39 72.0859 252.507 72.0655 252.599 72.0655C252.691 72.0551 252.767 72.0859 252.829 72.1581C252.89 72.2302 252.921 72.3536 252.921 72.5284C252.921 72.6518 252.895 72.7648 252.844 72.8678C252.803 72.9708 252.727 73.0425 252.614 73.0838C252.492 73.1251 252.328 73.161 252.124 73.1918C251.93 73.2331 251.752 73.2535 251.589 73.2535ZM254.568 73.2227C254.364 73.2227 254.211 73.166 254.108 73.053C254.007 72.9399 253.955 72.7802 253.955 72.5747V66.1407C253.955 65.9351 254.007 65.7808 254.108 65.6778C254.211 65.5648 254.359 65.5081 254.552 65.5081C254.746 65.5081 254.895 65.5648 254.996 65.6778C255.109 65.7808 255.165 65.9351 255.165 66.1407V67.4676L254.996 67.2825C255.211 66.6857 255.558 66.2383 256.037 65.9401C256.527 65.6316 257.089 65.4773 257.721 65.4773C258.313 65.4773 258.803 65.5853 259.191 65.8013C259.589 66.0173 259.885 66.3463 260.079 66.7887C260.273 67.2208 260.37 67.7712 260.37 68.4397V72.5747C260.37 72.7802 260.314 72.9399 260.201 73.053C260.099 73.166 259.951 73.2227 259.757 73.2227C259.553 73.2227 259.395 73.166 259.283 73.053C259.181 72.9399 259.13 72.7802 259.13 72.5747V68.5168C259.13 67.8175 258.992 67.3083 258.716 66.9893C258.451 66.6603 258.022 66.4956 257.43 66.4956C256.747 66.4956 256.201 66.7116 255.792 67.1436C255.394 67.5652 255.195 68.1311 255.195 68.8408V72.5746C255.195 73.0067 254.986 73.2227 254.568 73.2227ZM266.009 73.2535C265.223 73.2535 264.544 73.0992 263.973 72.7907C263.411 72.4717 262.972 72.0242 262.656 71.4483C262.35 70.8724 262.197 70.1831 262.197 69.3808C262.197 68.5989 262.35 67.9201 262.656 67.3442C262.962 66.7579 263.381 66.3 263.912 65.971C264.452 65.642 265.075 65.4773 265.779 65.4773C266.279 65.4773 266.728 65.5648 267.126 65.7396C267.524 65.9043 267.861 66.1457 268.137 66.4647C268.422 66.7837 268.637 67.1694 268.78 67.6219C268.933 68.0744 269.009 68.5835 269.009 69.1494C269.009 69.3141 268.963 69.4375 268.872 69.5197C268.78 69.5918 268.647 69.6277 268.473 69.6277H263.146V68.8099H268.183L267.938 69.0105C267.938 68.4551 267.856 67.9872 267.693 67.6065C267.529 67.2157 267.289 66.9172 266.973 66.7116C266.667 66.506 266.279 66.403 265.81 66.403C265.289 66.403 264.845 66.5264 264.478 66.7733C264.121 67.0098 263.85 67.3442 263.667 67.7762C263.483 68.1978 263.391 68.6915 263.391 69.2574V69.35C263.391 70.2961 263.615 71.0163 264.065 71.51C264.524 72.0038 265.172 72.2506 266.009 72.2506C266.356 72.2506 266.698 72.2043 267.035 72.1118C267.381 72.0192 267.718 71.8649 268.045 71.6489C268.188 71.5563 268.315 71.515 268.428 71.5255C268.55 71.5255 268.647 71.5613 268.718 71.6335C268.79 71.6952 268.836 71.7773 268.856 71.8803C268.887 71.9729 268.876 72.0759 268.826 72.1889C268.785 72.3019 268.698 72.3999 268.565 72.4821C268.229 72.7289 267.831 72.9191 267.371 73.0529C266.912 73.1868 266.458 73.2535 266.009 73.2535ZM271.431 73.2227C271.227 73.2227 271.069 73.166 270.957 73.053C270.855 72.9399 270.804 72.7802 270.804 72.5747V66.1407C270.804 65.9351 270.855 65.7808 270.957 65.6778C271.059 65.5648 271.207 65.5081 271.401 65.5081C271.594 65.5081 271.743 65.5648 271.845 65.6778C271.957 65.7808 272.013 65.9351 272.013 66.1407V67.3905H271.86C272.023 66.7837 272.335 66.3155 272.794 65.9864C273.253 65.6574 273.82 65.4823 274.493 65.4618C274.646 65.4514 274.769 65.4877 274.861 65.5698C274.952 65.642 275.003 65.7704 275.014 65.9556C275.024 66.1303 274.983 66.2692 274.891 66.3722C274.799 66.4751 274.656 66.5369 274.463 66.5573L274.218 66.5882C273.523 66.6499 272.988 66.8763 272.61 67.267C272.243 67.6477 272.059 68.1723 272.059 68.8408V72.5746C272.059 72.7802 272.003 72.9399 271.891 73.0529C271.789 73.166 271.635 73.2227 271.431 73.2227Z" fill="#2B2C2D"/>
<path d="M17.4576 41.6583C17.5201 38.2857 18.4962 35.6674 20.5843 33.5408C24.9245 29.1204 29.3069 24.7421 33.6561 20.3306C34.4453 19.5301 35.314 18.976 36.2577 19.8746C37.3145 20.881 36.6706 21.8069 35.8422 22.6395C31.5179 26.9863 27.1445 31.2853 22.8977 35.7078C18.7296 40.0484 20.474 46.9625 26.1411 48.7145C28.8444 49.5501 31.4626 49.1406 33.529 47.1194C38.228 42.5231 42.865 37.8602 47.4423 33.1407C49.3222 31.2024 49.2139 28.4882 47.4403 26.6361C45.661 24.778 42.7826 24.6379 40.8347 26.5384C36.721 30.552 32.7047 34.6672 28.6571 38.7494C27.8862 39.5269 27.6712 40.4107 28.5381 41.2416C29.3529 42.0225 30.1557 41.705 30.8579 41.001C33.314 38.5385 35.772 36.0776 38.2103 33.5972C39.0199 32.7736 39.8993 32.0008 40.9257 33.0729C41.9003 34.0908 41.2638 34.9873 40.4107 35.8289C37.9362 38.2701 35.5296 40.7809 33.0578 43.2249C30.9539 45.3052 28.0392 45.3505 26.161 43.3973C24.327 41.49 24.3951 38.6421 26.4132 36.5832C30.3975 32.5182 34.3885 28.4586 38.441 24.4631C41.7703 21.1806 46.4646 21.181 49.591 24.3511C52.7179 27.5217 52.6998 32.3025 49.4723 35.5945C45.0005 40.1558 40.556 44.7491 35.9544 49.1752C32.5352 52.4641 28.4217 53.1662 24.07 51.2807C19.7754 49.4199 17.7408 45.9018 17.4577 41.6583L17.4576 41.6583Z" fill="white"/>
</g>
<defs>
<linearGradient id="paint0_linear_886_22788" x1="0.25218" y1="-3.43811" x2="70.5159" y2="74.4095" gradientUnits="userSpaceOnUse">
<stop stop-color="#12B5D6"/>
<stop offset="1" stop-color="#246FB6"/>
</linearGradient>
<clipPath id="clip0_886_22788">
<rect width="279" height="76" fill="white"/>
</clipPath>
</defs>
</svg>
