<svg width="21" height="20" viewBox="0 0 21 20" fill="none" xmlns="http://www.w3.org/2000/svg">
<path d="M4.5 4C4.5 3.46957 4.71071 2.96086 5.08579 2.58579C5.46086 2.21071 5.96957 2 6.5 2H11.086C11.6164 2.00011 12.125 2.2109 12.5 2.586L15.914 6C16.2891 6.37499 16.4999 6.88361 16.5 7.414V16C16.5 16.5304 16.2893 17.0391 15.9142 17.4142C15.5391 17.7893 15.0304 18 14.5 18H12.972C13.9938 16.8569 14.5393 15.366 14.4964 13.8334C14.4535 12.3008 13.8255 10.8428 12.7414 9.75864C11.6572 8.6745 10.1992 8.04652 8.66657 8.00363C7.13396 7.96074 5.64308 8.50619 4.5 9.528V4Z" fill="#134E85"/>
<path fill-rule="evenodd" clip-rule="evenodd" d="M8.49996 10C7.79462 9.9999 7.1018 10.1863 6.49174 10.5403C5.88168 10.8943 5.37608 11.4034 5.0262 12.0158C4.67632 12.6283 4.49461 13.3223 4.49948 14.0276C4.50436 14.733 4.69565 15.4245 5.05396 16.032L3.79296 17.292C3.70005 17.3848 3.62633 17.4951 3.57603 17.6164C3.52572 17.7377 3.4998 17.8678 3.49976 17.9991C3.49971 18.1305 3.52553 18.2606 3.57576 18.3819C3.62598 18.5033 3.69961 18.6136 3.79246 18.7065C3.8853 18.7994 3.99554 18.8731 4.11687 18.9234C4.2382 18.9737 4.36826 18.9997 4.49961 18.9997C4.63095 18.9997 4.76103 18.9739 4.88239 18.9237C5.00376 18.8735 5.11405 18.7998 5.20696 18.707L6.46796 17.446C6.9978 17.7583 7.59252 17.9442 8.2059 17.9892C8.81927 18.0343 9.43477 17.9373 10.0046 17.7058C10.5744 17.4743 11.0831 17.1146 11.4913 16.6545C11.8994 16.1944 12.196 15.6464 12.3579 15.0531C12.5198 14.4598 12.5427 13.8371 12.4249 13.2335C12.307 12.6298 12.0515 12.0615 11.6783 11.5727C11.3051 11.0838 10.8242 10.6876 10.2729 10.4149C9.72169 10.1421 9.11498 10.0001 8.49996 10ZM6.49996 14C6.49996 13.4696 6.71067 12.9609 7.08574 12.5858C7.46082 12.2107 7.96953 12 8.49996 12C9.03039 12 9.5391 12.2107 9.91417 12.5858C10.2892 12.9609 10.5 13.4696 10.5 14C10.5 14.5304 10.2892 15.0391 9.91417 15.4142C9.5391 15.7893 9.03039 16 8.49996 16C7.96953 16 7.46082 15.7893 7.08574 15.4142C6.71067 15.0391 6.49996 14.5304 6.49996 14Z" fill="#134E85"/>
</svg>
