<svg width="70" height="72" viewBox="0 0 70 72" fill="none" xmlns="http://www.w3.org/2000/svg">
<path d="M24.6391 2.6792C30.8683 -0.893066 38.5041 -0.893066 44.7335 2.6792L59.1035 10.9199C65.4519 14.5605 69.3724 21.3556 69.3724 28.7172V41.916C69.3724 48.8761 65.8649 55.3594 60.0599 59.1291L45.6899 68.4606C38.9894 72.8116 30.3833 72.8116 23.6828 68.4606L9.31284 59.1291C3.50776 55.3594 0 48.8761 0 41.916V28.7172C0 21.3556 3.92083 14.5605 10.2692 10.9199L24.6391 2.6792Z" fill="url(#paint0_linear_2208_25197)"/>
<path d="M17.4575 41.6583C17.52 38.2857 18.4961 35.6674 20.5842 33.5408C24.9244 29.1204 29.3068 24.7421 33.6559 20.3306C34.4452 19.5301 35.3139 18.976 36.2575 19.8746C37.3144 20.881 36.6704 21.8069 35.8421 22.6395C31.5178 26.9863 27.1444 31.2853 22.8976 35.7078C18.7295 40.0484 20.4739 46.9625 26.141 48.7145C28.8443 49.5501 31.4625 49.1406 33.5288 47.1194C38.2279 42.5231 42.8649 37.8602 47.4422 33.1407C49.3221 31.2024 49.2138 28.4882 47.4402 26.6361C45.6609 24.778 42.7825 24.6379 40.8346 26.5384C36.7209 30.552 32.7046 34.6672 28.657 38.7494C27.8861 39.5269 27.6711 40.4107 28.538 41.2416C29.3527 42.0225 30.1556 41.705 30.8578 41.001C33.3139 38.5385 35.7719 36.0776 38.2102 33.5972C39.0197 32.7736 39.8992 32.0008 40.9256 33.0729C41.9002 34.0908 41.2637 34.9873 40.4105 35.8289C37.9361 38.2701 35.5294 40.7809 33.0577 43.2249C30.9538 45.3052 28.0391 45.3505 26.1609 43.3973C24.3269 41.49 24.395 38.6421 26.413 36.5832C30.3974 32.5182 34.3884 28.4586 38.4409 24.4631C41.7702 21.1806 46.4645 21.181 49.5909 24.3511C52.7177 27.5217 52.6996 32.3025 49.4722 35.5945C45.0003 40.1558 40.5559 44.7491 35.9543 49.1752C32.535 52.4641 28.4216 53.1662 24.0698 51.2807C19.7753 49.4199 17.7407 45.9018 17.4575 41.6583L17.4575 41.6583Z" fill="white"/>
<defs>
<linearGradient id="paint0_linear_2208_25197" x1="0.25218" y1="-3.43811" x2="70.5159" y2="74.4095" gradientUnits="userSpaceOnUse">
<stop stop-color="#12B5D6"/>
<stop offset="1" stop-color="#246FB6"/>
</linearGradient>
</defs>
</svg>
