<svg width="512" height="512" viewBox="0 0 512 512" fill="none" xmlns="http://www.w3.org/2000/svg">
<path d="M187.611 31.1169C229.733 6.96105 281.367 6.96105 323.49 31.1169L420.66 86.8407C463.589 111.459 490.099 157.407 490.099 207.187V296.438C490.099 343.502 466.381 387.343 427.128 412.834L329.957 475.934C284.648 505.355 226.453 505.355 181.144 475.934L83.9738 412.834C44.7196 387.343 21 343.502 21 296.438V207.187C21 157.407 47.5128 111.459 90.4407 86.8409L187.611 31.1169Z" fill="url(#paint0_linear_2692_25187)"/>
<path d="M139.049 294.695C139.471 271.889 146.072 254.184 160.191 239.804C189.54 209.913 219.174 180.307 248.583 150.476C253.92 145.063 259.794 141.316 266.175 147.393C273.321 154.198 268.967 160.459 263.366 166.089C234.125 195.482 204.552 224.553 175.835 254.458C147.65 283.809 159.446 330.563 197.767 342.409C216.047 348.06 233.751 345.29 247.724 331.623C279.499 300.543 310.854 269.012 341.806 237.099C354.518 223.992 353.786 205.638 341.793 193.114C329.761 180.55 310.297 179.602 297.125 192.453C269.308 219.594 242.15 247.421 214.78 275.025C209.567 280.282 208.113 286.259 213.975 291.877C219.485 297.158 224.914 295.011 229.662 290.251C246.27 273.599 262.891 256.958 279.379 240.185C284.853 234.616 290.8 229.39 297.741 236.64C304.331 243.523 300.027 249.585 294.258 255.277C277.526 271.784 261.252 288.762 244.538 305.289C230.311 319.356 210.601 319.662 197.901 306.454C185.499 293.557 185.96 274.299 199.606 260.377C226.549 232.889 253.536 205.438 280.939 178.42C303.452 156.224 335.195 156.227 356.336 177.663C377.48 199.102 377.357 231.431 355.533 253.691C325.294 284.535 295.241 315.595 264.125 345.525C241.003 367.765 213.188 372.512 183.761 359.762C154.721 347.179 140.964 323.39 139.049 294.695L139.049 294.695Z" fill="white"/>
<defs>
<linearGradient id="paint0_linear_2692_25187" x1="22.7053" y1="-10.2487" x2="497.832" y2="516.16" gradientUnits="userSpaceOnUse">
<stop stop-color="#12B5D6"/>
<stop offset="1" stop-color="#246FB6"/>
</linearGradient>
</defs>
</svg>
