<svg width="17" height="20" viewBox="0 0 17 20" fill="none" xmlns="http://www.w3.org/2000/svg">
<path d="M6.75 19H13.75C14.2804 19 14.7891 18.7893 15.1642 18.4142C15.5393 18.0391 15.75 17.5304 15.75 17V7.414C15.7499 7.1488 15.6446 6.89449 15.457 6.707L10.043 1.293C9.85551 1.10545 9.6012 1.00006 9.336 1H3.75C3.21957 1 2.71086 1.21071 2.33579 1.58579C1.96071 1.96086 1.75 2.46957 1.75 3V14L6.75 19ZM1.75 19L6.629 14.121L1.75 19ZM6.629 14.121C6.90671 14.4033 7.23757 14.6279 7.60249 14.7817C7.96742 14.9355 8.35919 15.0156 8.7552 15.0173C9.15122 15.0189 9.54365 14.9421 9.90985 14.7914C10.2761 14.6406 10.6088 14.4188 10.8888 14.1388C11.1689 13.8588 11.3908 13.5262 11.5416 13.16C11.6925 12.7938 11.7693 12.4014 11.7677 12.0054C11.7662 11.6094 11.6862 11.2176 11.5325 10.8526C11.3787 10.4877 11.1543 10.1568 10.872 9.879C10.3079 9.32389 9.54732 9.01417 8.75591 9.0173C7.9645 9.02043 7.20638 9.33615 6.6467 9.89571C6.08702 10.4553 5.77111 11.2133 5.7678 12.0047C5.76448 12.7961 6.07402 13.5568 6.629 14.121Z" stroke="#8696BB" stroke-width="2" stroke-linecap="round" stroke-linejoin="round"/>
</svg>
