<svg width="20" height="18" viewBox="0 0 20 18" fill="none" xmlns="http://www.w3.org/2000/svg">
<path d="M12.9827 12.9484H14.9827M7.98267 3.94836H2.98267C2.45223 3.94836 1.94353 4.15908 1.56845 4.53415C1.19338 4.90922 0.982666 5.41793 0.982666 5.94836V14.9484C0.982666 15.4788 1.19338 15.9875 1.56845 16.3626C1.94353 16.7377 2.45223 16.9484 2.98267 16.9484H16.9827C17.5131 16.9484 18.0218 16.7377 18.3969 16.3626C18.772 15.9875 18.9827 15.4788 18.9827 14.9484V5.94836C18.9827 5.41793 18.772 4.90922 18.3969 4.53415C18.0218 4.15908 17.5131 3.94836 16.9827 3.94836H11.9827H7.98267ZM7.98267 3.94836V2.94836C7.98267 2.41793 8.19338 1.90922 8.56845 1.53415C8.94353 1.15908 9.45223 0.948364 9.98267 0.948364C10.5131 0.948364 11.0218 1.15908 11.3969 1.53415C11.772 1.90922 11.9827 2.41793 11.9827 2.94836V3.94836H7.98267ZM7.98267 3.94836C7.98267 4.4788 8.19338 4.98751 8.56845 5.36258C8.94353 5.73765 9.45223 5.94836 9.98267 5.94836C10.5131 5.94836 11.0218 5.73765 11.3969 5.36258C11.772 4.98751 11.9827 4.4788 11.9827 3.94836H7.98267ZM6.98267 11.9484C7.5131 11.9484 8.02181 11.7377 8.39688 11.3626C8.77195 10.9875 8.98267 10.4788 8.98267 9.94836C8.98267 9.41793 8.77195 8.90922 8.39688 8.53415C8.02181 8.15908 7.5131 7.94836 6.98267 7.94836C6.45223 7.94836 5.94353 8.15908 5.56845 8.53415C5.19338 8.90922 4.98267 9.41793 4.98267 9.94836C4.98267 10.4788 5.19338 10.9875 5.56845 11.3626C5.94353 11.7377 6.45223 11.9484 6.98267 11.9484ZM6.98267 11.9484C8.28867 11.9484 9.39967 12.7834 9.81267 13.9484L6.98267 11.9484ZM6.98267 11.9484C6.36205 11.9482 5.75664 12.1404 5.24981 12.4986C4.74299 12.8568 4.35968 13.3633 4.15267 13.9484L6.98267 11.9484ZM12.9827 8.94836H15.9827H12.9827Z" stroke="white" stroke-linecap="round" stroke-linejoin="round"/>
</svg>
