<svg width="40" height="40" viewBox="0 0 40 40" fill="none" xmlns="http://www.w3.org/2000/svg">
<rect width="39.9655" height="39.9655" rx="19.9828" fill="#134E85"/>
<path d="M22.9827 22.9828H24.9827M17.9827 13.9828H12.9827C12.4522 13.9828 11.9435 14.1935 11.5685 14.5686C11.1934 14.9436 10.9827 15.4524 10.9827 15.9828V24.9828C10.9827 25.5132 11.1934 26.0219 11.5685 26.397C11.9435 26.7721 12.4522 26.9828 12.9827 26.9828H26.9827C27.5131 26.9828 28.0218 26.7721 28.3969 26.397C28.772 26.0219 28.9827 25.5132 28.9827 24.9828V15.9828C28.9827 15.4524 28.772 14.9436 28.3969 14.5686C28.0218 14.1935 27.5131 13.9828 26.9827 13.9828H21.9827H17.9827ZM17.9827 13.9828V12.9828C17.9827 12.4524 18.1934 11.9436 18.5685 11.5686C18.9435 11.1935 19.4522 10.9828 19.9827 10.9828C20.5131 10.9828 21.0218 11.1935 21.3969 11.5686C21.772 11.9436 21.9827 12.4524 21.9827 12.9828V13.9828H17.9827ZM17.9827 13.9828C17.9827 14.5132 18.1934 15.0219 18.5685 15.397C18.9435 15.7721 19.4522 15.9828 19.9827 15.9828C20.5131 15.9828 21.0218 15.7721 21.3969 15.397C21.772 15.0219 21.9827 14.5132 21.9827 13.9828H17.9827ZM16.9827 21.9828C17.5131 21.9828 18.0218 21.7721 18.3969 21.397C18.772 21.0219 18.9827 20.5132 18.9827 19.9828C18.9827 19.4524 18.772 18.9436 18.3969 18.5686C18.0218 18.1935 17.5131 17.9828 16.9827 17.9828C16.4522 17.9828 15.9435 18.1935 15.5685 18.5686C15.1934 18.9436 14.9827 19.4524 14.9827 19.9828C14.9827 20.5132 15.1934 21.0219 15.5685 21.397C15.9435 21.7721 16.4522 21.9828 16.9827 21.9828ZM16.9827 21.9828C18.2887 21.9828 19.3997 22.8178 19.8127 23.9828L16.9827 21.9828ZM16.9827 21.9828C16.362 21.9826 15.7566 22.1748 15.2498 22.533C14.743 22.8912 14.3597 23.3977 14.1527 23.9828L16.9827 21.9828ZM22.9827 18.9828H25.9827H22.9827Z" stroke="white" stroke-linecap="round" stroke-linejoin="round"/>
</svg>
