<svg width="40" height="41" viewBox="0 0 40 41" fill="none" xmlns="http://www.w3.org/2000/svg">
<rect y="0.896484" width="39.9655" height="39.9655" rx="19.9828" fill="#134E85"/>
<g clip-path="url(#clip0_4263_1049)">
<path d="M19.9938 32.8793C13.3707 32.8793 7.98267 27.4913 7.98267 20.8681C7.98267 14.2578 13.3707 8.87927 19.9938 8.87927C26.6041 8.87927 31.9827 14.2578 31.9827 20.8681C31.9827 27.4913 26.6041 32.8793 19.9938 32.8793ZM19.9938 9.73642C13.843 9.73642 8.83981 14.7301 8.83981 20.8681C8.83981 27.019 13.843 32.0221 19.9938 32.0221C26.1318 32.0221 31.1255 27.019 31.1255 20.8681C31.1255 14.7301 26.1318 9.73642 19.9938 9.73642Z" fill="white"/>
<path d="M19.983 26.9401L13.9221 20.8792L19.983 14.8175L26.0438 20.8792L19.983 26.9401ZM15.1341 20.8792L19.983 25.7281L24.831 20.8792L19.983 16.0304L15.1341 20.8792Z" fill="white"/>
<path d="M19.5542 18.3079H20.4113V21.7364H19.5542V18.3079ZM19.5542 22.5936H20.4113V23.4507H19.5542V22.5936Z" fill="white"/>
</g>
<defs>
<clipPath id="clip0_4263_1049">
<rect width="24" height="24" fill="white" transform="translate(7.98267 8.87927)"/>
</clipPath>
</defs>
</svg>
